<svg width="30" height="30" viewBox="0 0 30 30" fill="none" xmlns="http://www.w3.org/2000/svg">
<rect width="30" height="30" rx="7" fill="#F5E6D8"/> <!-- Cream color -->
<path d="M18 9H12V18C12 20.2091 13.7909 22 16 22H17C19.2091 22 21 20.2091 21 18V9H18ZM10 9C9.44772 9 9 9.44772 9 10V20C9 20.5523 9.44772 21 10 21H11C11.5523 21 12 20.5523 12 20V18H16C18.2091 18 20 16.2091 20 14V10C20 9.44772 19.5523 9 19 9H10Z" fill="#6F4E37"/>
<path d="M18 13H19C19.5523 13 20 13.4477 20 14V15C20 15.5523 19.5523 16 19 16H18V13Z" fill="#6F4E37"/>
</svg>