<svg width="30" height="30" viewBox="0 0 30 30" fill="none" xmlns="http://www.w3.org/2000/svg">
<rect width="30" height="30" rx="7" fill="#6F4E37"/> <!-- Coffee brown -->
<path d="M20 10H10V12C10 15.3137 12.6863 18 16 18H17C19.2091 18 21 16.2091 21 14V10H20ZM8 10C7.44772 10 7 10.4477 7 11V19C7 19.5523 7.44772 20 8 20H9C9.55228 20 10 19.5523 10 19V18H16C19.3137 18 22 15.3137 22 12V11C22 10.4477 21.5523 10 21 10H8Z" fill="white"/>
<path d="M20 10H21C21.5523 10 22 10.4477 22 11V12C22 12.5523 21.5523 13 21 13H20V10Z" fill="white"/>
</svg>